<svg xmlns="http://www.w3.org/2000/svg"  viewBox="0 0 64 64" width="64px" height="64px"><path d="M 13 6 C 9.14 6 6 9.141 6 13 L 6 51 C 6 54.859 9.14 58 13 58 L 51 58 C 54.86 58 58 54.859 58 51 L 58 13 C 58 9.141 54.86 6 51 6 L 13 6 z M 13 8 L 51 8 C 53.757 8 56 10.243 56 13 L 56 51 C 56 53.757 53.757 56 51 56 L 13 56 C 10.243 56 8 53.757 8 51 L 8 13 C 8 10.243 10.243 8 13 8 z M 17.980469 16.492188 L 17.980469 28.945312 L 21.09375 28.945312 L 21.09375 24.275391 L 23.427734 24.275391 L 23.427734 28.945312 L 26.541016 28.945312 L 26.541016 16.492188 L 23.427734 16.492188 L 23.427734 21.162109 L 21.09375 21.162109 L 21.09375 16.492188 L 17.980469 16.492188 z M 27.320312 16.492188 L 27.320312 28.943359 L 29.576172 28.943359 L 30.328125 28.943359 L 30.328125 28.945312 L 32.585938 28.945312 C 34.842937 28.945312 36.347656 27.561031 36.347656 25.832031 C 36.347656 25.433031 36.289359 25.055078 36.193359 24.705078 C 37.016359 27.177078 39.333703 28.945312 42.095703 28.945312 C 45.553703 28.945312 48.320312 26.17775 48.320312 22.71875 C 48.320312 19.25975 45.554703 16.492188 42.095703 16.492188 C 39.356703 16.492188 37.056797 18.231875 36.216797 20.671875 C 36.297797 20.338875 36.347656 19.982469 36.347656 19.605469 C 36.347656 17.876469 34.842938 16.492188 32.585938 16.492188 L 27.320312 16.492188 z M 30.431641 19.605469 L 32.134766 19.605469 C 32.679766 19.605469 33.15625 20.059125 33.15625 20.578125 C 33.15625 21.097125 32.679766 21.552734 32.134766 21.552734 L 30.431641 21.552734 L 30.431641 19.605469 z M 42.09375 19.605469 C 43.83675 19.605469 45.207031 20.97575 45.207031 22.71875 C 45.207031 24.46175 43.83675 25.832031 42.09375 25.832031 C 40.35075 25.832031 38.980469 24.46175 38.980469 22.71875 C 38.980469 20.97575 40.35075 19.605469 42.09375 19.605469 z M 42.09375 20.8125 C 41.02675 20.8125 40.1875 21.65075 40.1875 22.71875 C 40.1875 23.78675 41.02675 24.625 42.09375 24.625 C 43.16075 24.625 44 23.78675 44 22.71875 C 44 21.65075 43.16075 20.8125 42.09375 20.8125 z M 36.09375 21.066406 C 35.95075 21.592406 35.867188 22.14475 35.867188 22.71875 C 35.867188 23.33375 35.958094 23.924375 36.121094 24.484375 C 35.764094 23.439375 35.008844 22.71875 34.089844 22.71875 C 35.027844 22.71875 35.73875 22.048406 36.09375 21.066406 z M 30.431641 23.886719 L 32.134766 23.886719 C 32.679766 23.886719 33.15625 24.341375 33.15625 24.859375 C 33.15625 25.377375 32.679766 25.832031 32.134766 25.832031 L 30.431641 25.832031 L 30.431641 23.886719 z M 34.322266 29.898438 C 31.388266 29.898438 29.001953 32.612219 29.001953 35.949219 C 29.001953 39.286219 31.389266 42 34.322266 42 C 35.701266 42 36.955344 41.394109 37.902344 40.412109 L 37.902344 40.695312 C 37.902344 41.297312 38.390187 41.785156 38.992188 41.785156 L 40.082031 41.785156 L 40.082031 30.111328 L 38.992188 30.111328 C 38.390188 30.111328 37.902344 30.598172 37.902344 31.201172 L 37.902344 31.484375 C 36.956344 30.502375 35.701266 29.898437 34.322266 29.898438 z M 40.291016 30.111328 L 43.970703 35.099609 C 44.375703 35.648609 44.375703 36.398266 43.970703 36.947266 L 40.458984 41.707031 L 42.380859 41.707031 C 42.875859 41.707031 43.338813 41.471219 43.632812 41.074219 L 45.630859 38.367188 C 45.817859 38.113188 46.195812 38.113188 46.382812 38.367188 L 48.378906 41.074219 C 48.672906 41.472219 49.137813 41.707031 49.632812 41.707031 L 51.552734 41.707031 L 48.042969 36.947266 C 47.637969 36.398266 47.637016 35.649609 48.041016 35.099609 L 51.720703 30.111328 L 49.800781 30.111328 C 49.305781 30.111328 48.840875 30.347141 48.546875 30.744141 L 46.382812 33.677734 C 46.195813 33.931734 45.817859 33.931734 45.630859 33.677734 L 43.464844 30.744141 C 43.170844 30.346141 42.707891 30.111328 42.212891 30.111328 L 40.291016 30.111328 z M 24.091797 30.191406 C 23.757404 30.179729 23.413578 30.205562 23.064453 30.273438 C 22.093453 30.461437 21.274969 30.998703 20.667969 31.720703 C 19.691969 30.590703 18.162047 29.949438 16.498047 30.273438 C 14.424047 30.678437 13 32.623281 13 34.738281 L 13 40.695312 C 13 41.297312 13.487844 41.785156 14.089844 41.785156 L 15.179688 41.785156 L 15.179688 34.5625 C 15.179688 33.3535 16.162094 32.369141 17.371094 32.369141 C 18.580094 32.369141 19.564453 33.3535 19.564453 34.5625 L 19.564453 40.695312 C 19.564453 41.297312 20.052297 41.785156 20.654297 41.785156 L 21.742188 41.785156 L 21.742188 34.5625 C 21.742188 33.3535 22.726547 32.369141 23.935547 32.369141 C 25.144547 32.369141 26.128906 33.3535 26.128906 34.5625 L 26.128906 40.695312 C 26.128906 41.297312 26.61575 41.785156 27.21875 41.785156 L 28.308594 41.785156 L 28.308594 34.5625 C 28.312094 32.2035 26.432545 30.27315 24.091797 30.191406 z M 34.322266 32.076172 C 36.054266 32.076172 37.464844 33.811266 37.464844 35.947266 C 37.464844 38.083266 36.056266 39.818359 34.322266 39.818359 C 32.588266 39.818359 31.181641 38.083266 31.181641 35.947266 C 31.181641 33.812266 32.590266 32.076172 34.322266 32.076172 z M 12 48 C 11.448 48 11 48.448 11 49 L 11 51 C 11 51.552 11.448 52 12 52 C 12.552 52 13 51.552 13 51 L 13 49 C 13 48.448 12.552 48 12 48 z M 17 48 C 16.448 48 16 48.448 16 49 L 16 51 C 16 51.552 16.448 52 17 52 C 17.552 52 18 51.552 18 51 L 18 49 C 18 48.448 17.552 48 17 48 z M 22 48 C 21.448 48 21 48.448 21 49 L 21 51 C 21 51.552 21.448 52 22 52 C 22.552 52 23 51.552 23 51 L 23 49 C 23 48.448 22.552 48 22 48 z M 27 48 C 26.448 48 26 48.448 26 49 L 26 51 C 26 51.552 26.448 52 27 52 C 27.552 52 28 51.552 28 51 L 28 49 C 28 48.448 27.552 48 27 48 z M 32 48 C 31.448 48 31 48.448 31 49 L 31 51 C 31 51.552 31.448 52 32 52 C 32.552 52 33 51.552 33 51 L 33 49 C 33 48.448 32.552 48 32 48 z M 37 48 C 36.448 48 36 48.448 36 49 L 36 51 C 36 51.552 36.448 52 37 52 C 37.552 52 38 51.552 38 51 L 38 49 C 38 48.448 37.552 48 37 48 z M 42 48 C 41.448 48 41 48.448 41 49 L 41 51 C 41 51.552 41.448 52 42 52 C 42.552 52 43 51.552 43 51 L 43 49 C 43 48.448 42.552 48 42 48 z M 47 48 C 46.448 48 46 48.448 46 49 L 46 51 C 46 51.552 46.448 52 47 52 C 47.552 52 48 51.552 48 51 L 48 49 C 48 48.448 47.552 48 47 48 z M 52 48 C 51.448 48 51 48.448 51 49 L 51 51 C 51 51.552 51.448 52 52 52 C 52.552 52 53 51.552 53 51 L 53 49 C 53 48.448 52.552 48 52 48 z"/></svg>